<?xml version="1.0" standalone="no"?>
<!DOCTYPE svg PUBLIC "-//W3C//DTD SVG 20010904//EN"
 "http://www.w3.org/TR/2001/REC-SVG-20010904/DTD/svg10.dtd">
<svg version="1.0" xmlns="http://www.w3.org/2000/svg"
 width="322.000000pt" height="156.000000pt" viewBox="0 0 322.000000 156.000000"
 preserveAspectRatio="xMidYMid meet">

<g transform="translate(0.000000,156.000000) scale(0.100000,-0.100000)"
fill="#000000" stroke="none">
<path d="M380 1378 c-53 -37 -73 -71 -78 -135 -5 -76 20 -113 108 -160 52 -28
73 -34 107 -30 81 9 142 83 143 173 0 57 -32 100 -105 141 -73 40 -127 43
-175 11z"/>
<path d="M650 1065 c-7 -9 -8 -15 -2 -15 5 0 12 7 16 15 3 8 4 15 2 15 -2 0
-9 -7 -16 -15z"/>
<path d="M755 1069 c-4 -6 -5 -12 -2 -15 2 -3 7 2 10 11 7 17 1 20 -8 4z"/>
<path d="M557 1023 c-10 -9 -9 -23 2 -23 5 0 11 7 15 15 5 15 -5 20 -17 8z"/>
<path d="M676 1005 c-3 -8 -1 -15 3 -15 5 0 11 7 15 15 3 8 1 15 -3 15 -5 0
-11 -7 -15 -15z"/>
<path d="M470 971 c0 -6 4 -12 8 -15 5 -3 9 1 9 9 0 8 -4 15 -9 15 -4 0 -8 -4
-8 -9z"/>
<path d="M600 960 c-11 -7 -12 -12 -4 -20 8 -8 13 -6 17 9 3 12 4 21 4 21 -1
0 -9 -5 -17 -10z"/>
<path d="M390 931 c0 -6 5 -13 10 -16 6 -3 10 1 10 9 0 9 -4 16 -10 16 -5 0
-10 -4 -10 -9z"/>
<path d="M510 905 c0 -8 4 -15 8 -15 5 0 9 7 9 15 0 8 -4 15 -9 15 -4 0 -8 -7
-8 -15z"/>
<path d="M330 901 c0 -6 4 -12 8 -15 5 -3 9 1 9 9 0 8 -4 15 -9 15 -4 0 -8 -4
-8 -9z"/>
<path d="M620 891 c0 -6 4 -12 8 -15 5 -3 9 1 9 9 0 8 -4 15 -9 15 -4 0 -8 -4
-8 -9z"/>
<path d="M700 885 c0 -8 2 -15 4 -15 2 0 6 7 10 15 3 8 1 15 -4 15 -6 0 -10
-7 -10 -15z"/>
<path d="M444 869 c-3 -6 -2 -15 3 -20 5 -5 9 -1 9 11 0 23 -2 24 -12 9z"/>
<path d="M555 849 c-4 -6 -5 -12 -2 -15 2 -3 7 2 10 11 7 17 1 20 -8 4z"/>
<path d="M752 815 c-62 -70 -173 -280 -171 -325 0 -14 8 -38 18 -55 18 -30 18
-30 109 -29 101 1 132 15 132 61 0 24 -1 24 -87 21 -78 -3 -88 -1 -87 14 1 10
41 88 89 174 67 121 84 159 73 165 -25 16 -46 9 -76 -26z"/>
<path d="M1939 832 c-31 -18 -64 -81 -120 -228 -42 -112 -48 -154 -24 -174 9
-7 17 -11 19 -9 2 2 23 58 46 124 23 66 45 123 48 127 4 4 7 -44 7 -107 0
-106 2 -115 24 -139 13 -14 27 -23 32 -21 13 9 68 134 100 229 38 113 48 186
26 204 -16 13 -16 13 -97 -218 l-30 -85 6 135 c3 74 6 144 7 154 3 25 -12 28
-44 8z"/>
<path d="M381 824 c0 -11 3 -14 6 -6 3 7 2 16 -1 19 -3 4 -6 -2 -5 -13z"/>
<path d="M640 829 c0 -5 5 -7 10 -4 6 3 10 8 10 11 0 2 -4 4 -10 4 -5 0 -10
-5 -10 -11z"/>
<path d="M481 794 c0 -11 3 -14 6 -6 3 7 2 16 -1 19 -3 4 -6 -2 -5 -13z"/>
<path d="M581 774 c0 -11 3 -14 6 -6 3 7 2 16 -1 19 -3 4 -6 -2 -5 -13z"/>
<path d="M420 755 c0 -8 4 -15 10 -15 5 0 7 7 4 15 -4 8 -8 15 -10 15 -2 0 -4
-7 -4 -15z"/>
<path d="M316 745 c4 -8 8 -15 10 -15 2 0 4 7 4 15 0 8 -4 15 -10 15 -5 0 -7
-7 -4 -15z"/>
<path d="M515 739 c-4 -6 -5 -12 -2 -15 2 -3 7 2 10 11 7 17 1 20 -8 4z"/>
<path d="M356 705 c4 -8 8 -15 10 -15 2 0 4 7 4 15 0 8 -4 15 -10 15 -5 0 -7
-7 -4 -15z"/>
<path d="M461 684 c0 -11 3 -14 6 -6 3 7 2 16 -1 19 -3 4 -6 -2 -5 -13z"/>
<path d="M407 683 c-3 -5 -1 -17 4 -28 7 -17 8 -17 8 8 1 27 -4 34 -12 20z"/>
<path d="M2244 680 c-47 -19 -110 -120 -120 -192 -5 -38 -2 -46 21 -68 l27
-25 34 38 c40 43 44 45 44 14 0 -13 6 -31 13 -41 12 -16 14 -16 31 3 18 20 18
21 1 21 -10 0 -15 5 -12 13 3 6 21 52 42 101 37 90 41 131 8 105 -13 -11 -17
-11 -21 -1 -5 15 -31 42 -40 41 -4 0 -16 -4 -28 -9z m56 -62 c0 -19 -32 -67
-79 -120 -63 -71 -81 -61 -38 19 40 76 117 142 117 101z"/>
<path d="M2890 683 c-37 -14 -73 -49 -95 -94 -34 -65 -33 -159 0 -159 7 0 18
-7 25 -15 7 -8 16 -15 21 -15 15 0 79 62 79 76 0 19 -5 18 -54 -11 -24 -14
-46 -22 -49 -18 -10 10 -8 48 4 80 10 26 12 27 23 11 31 -42 99 1 112 69 5 27
2 39 -17 59 -24 25 -25 26 -49 17z m40 -53 c0 -13 -60 -80 -71 -80 -17 0 -9
29 17 59 25 30 54 41 54 21z"/>
<path d="M326 665 c4 -8 8 -15 10 -15 2 0 4 7 4 15 0 8 -4 15 -10 15 -5 0 -7
-7 -4 -15z"/>
<path d="M541 664 c0 -11 3 -14 6 -6 3 7 2 16 -1 19 -3 4 -6 -2 -5 -13z"/>
<path d="M1005 668 c-56 -30 -107 -96 -126 -161 -11 -39 12 -97 40 -97 11 0
23 -4 26 -10 3 -5 16 -10 29 -10 82 0 195 185 141 230 -8 7 -15 20 -15 30 0
30 -55 40 -95 18z m44 -65 c-12 -15 -12 -16 4 -10 22 8 22 -5 -2 -51 -26 -50
-86 -106 -105 -99 -29 11 18 108 79 159 26 22 41 23 24 1z"/>
<path d="M1279 652 c-95 -61 -149 -192 -99 -242 29 -29 55 -25 100 16 22 20
40 33 40 29 0 -16 -92 -184 -110 -200 -21 -19 -22 -17 -34 30 -2 11 -4 2 -3
-20 2 -34 6 -41 30 -49 19 -7 34 -7 45 0 30 19 90 117 146 241 55 120 65 163
46 193 -8 13 -11 12 -23 -3 -12 -18 -14 -17 -25 7 -16 35 -55 34 -113 -2z
m111 -48 c0 -36 -169 -179 -184 -156 -8 13 56 103 98 140 39 34 86 43 86 16z"/>
<path d="M1584 655 c-47 -28 -87 -82 -104 -141 -10 -34 -10 -46 4 -72 10 -19
24 -32 36 -32 10 0 22 -4 25 -10 11 -17 49 -11 87 15 69 47 121 174 84 204 -9
7 -16 21 -16 31 0 37 -58 40 -116 5z m65 -52 c-8 -10 -9 -14 -2 -10 39 24 10
-54 -42 -112 -45 -49 -79 -56 -69 -13 11 44 32 79 70 117 35 36 68 50 43 18z"/>
<path d="M2429 663 c-10 -11 -10 -14 -1 -9 18 11 15 -6 -17 -86 -42 -107 -46
-131 -22 -152 19 -17 21 -16 73 63 29 44 56 81 60 81 4 0 -3 -27 -15 -60 l-22
-60 22 -21 c27 -28 36 -22 94 67 23 35 43 63 45 61 3 -2 -2 -21 -10 -43 -13
-39 -8 -75 13 -89 16 -9 48 3 55 22 5 13 4 14 -9 3 -28 -24 -29 -1 -1 62 58
131 60 136 46 153 -26 31 -51 14 -132 -93 -23 -29 -43 -51 -45 -48 -2 2 5 22
16 45 22 43 26 77 12 100 -13 20 -43 0 -86 -59 -21 -28 -40 -49 -42 -46 -3 2
0 21 7 41 21 64 -7 110 -41 68z"/>
<path d="M443 597 c-5 -24 -6 -52 -3 -62 4 -12 9 2 13 40 7 72 4 80 -10 22z"/>
<path d="M381 619 c0 -9 6 -22 14 -29 12 -10 15 -9 15 4 0 10 -4 15 -9 11 -5
-3 -12 3 -14 12 -4 15 -5 15 -6 2z"/>
<path d="M350 591 c0 -5 5 -13 10 -16 6 -3 10 -2 10 4 0 5 -4 13 -10 16 -5 3
-10 2 -10 -4z"/>
<path d="M492 570 c0 -14 2 -19 5 -12 2 6 2 18 0 25 -3 6 -5 1 -5 -13z"/>
<path d="M385 515 c0 -18 3 -21 13 -13 6 6 12 14 12 18 0 4 -6 10 -12 13 -8 3
-13 -4 -13 -18z"/>
<path d="M522 520 c0 -14 2 -19 5 -12 2 6 2 18 0 25 -3 6 -5 1 -5 -13z"/>
<path d="M476 495 c4 -8 8 -15 10 -15 2 0 4 7 4 15 0 8 -4 15 -10 15 -5 0 -7
-7 -4 -15z"/>
<path d="M542 460 c0 -14 2 -19 5 -12 2 6 2 18 0 25 -3 6 -5 1 -5 -13z"/>
<path d="M502 440 c0 -14 2 -19 5 -12 2 6 2 18 0 25 -3 6 -5 1 -5 -13z"/>
<path d="M466 417 c3 -10 9 -15 12 -12 3 3 0 11 -7 18 -10 9 -11 8 -5 -6z"/>
<path d="M522 390 c0 -14 2 -19 5 -12 2 6 2 18 0 25 -3 6 -5 1 -5 -13z"/>
<path d="M492 370 c0 -14 2 -19 5 -12 2 6 2 18 0 25 -3 6 -5 1 -5 -13z"/>
</g>
</svg>
